<svg width="1440" height="347" viewBox="0 0 1440 347" fill="none" xmlns="http://www.w3.org/2000/svg">
<g clip-path="url(#clip0_2683_2088)">
<rect width="1440" height="347" fill="#52154E"/>
<mask id="mask0_2683_2088" style="mask-type:alpha" maskUnits="userSpaceOnUse" x="825" y="-87" width="630" height="630">
<path d="M1455 -87H825V543H1455V-87Z" fill="#D9D9D9"/>
<path d="M1454.5 -86.5V542.5H825.5V-86.5H1454.5Z" stroke="white" stroke-opacity="0.05"/>
</mask>
<g mask="url(#mask0_2683_2088)">
<path d="M1443.3 1137.9C1781.55 1137.9 2055.75 863.697 2055.75 525.45C2055.75 187.203 1781.55 -87 1443.3 -87C1105.05 -87 830.852 187.203 830.852 525.45C830.852 863.697 1105.05 1137.9 1443.3 1137.9Z" stroke="white" stroke-opacity="0.05" stroke-width="5" stroke-miterlimit="10"/>
<path d="M1443.3 1069.85C1743.96 1069.85 1987.7 826.112 1987.7 525.448C1987.7 224.784 1743.96 -18.9521 1443.3 -18.9521C1142.64 -18.9521 898.898 224.784 898.898 525.448C898.898 826.112 1142.64 1069.85 1443.3 1069.85Z" stroke="white" stroke-opacity="0.05" stroke-width="5" stroke-miterlimit="10"/>
<path d="M1443.3 1001.8C1706.38 1001.8 1919.65 788.531 1919.65 525.451C1919.65 262.37 1706.38 49.1006 1443.3 49.1006C1180.22 49.1006 966.949 262.37 966.949 525.451C966.949 788.531 1180.22 1001.8 1443.3 1001.8Z" stroke="white" stroke-opacity="0.05" stroke-width="5" stroke-miterlimit="10"/>
<path d="M1443.3 933.75C1668.79 933.75 1851.6 750.946 1851.6 525.448C1851.6 299.951 1668.79 117.148 1443.3 117.148C1217.8 117.148 1035 299.951 1035 525.448C1035 750.946 1217.8 933.75 1443.3 933.75Z" stroke="white" stroke-opacity="0.05" stroke-width="5" stroke-miterlimit="10"/>
<path d="M1443.29 865.7C1631.21 865.7 1783.54 713.365 1783.54 525.45C1783.54 337.535 1631.21 185.2 1443.29 185.2C1255.38 185.2 1103.04 337.535 1103.04 525.45C1103.04 713.365 1255.38 865.7 1443.29 865.7Z" stroke="white" stroke-opacity="0.05" stroke-width="5" stroke-miterlimit="10"/>
<path d="M1443.31 797.649C1593.64 797.649 1715.51 675.781 1715.51 525.449C1715.51 375.117 1593.64 253.249 1443.31 253.249C1292.97 253.249 1171.11 375.117 1171.11 525.449C1171.11 675.781 1292.97 797.649 1443.31 797.649Z" stroke="white" stroke-opacity="0.05" stroke-width="5" stroke-miterlimit="10"/>
<path d="M1443.31 729.601C1556.06 729.601 1647.46 638.2 1647.46 525.451C1647.46 412.702 1556.06 321.301 1443.31 321.301C1330.56 321.301 1239.16 412.702 1239.16 525.451C1239.16 638.2 1330.56 729.601 1443.31 729.601Z" stroke="white" stroke-opacity="0.05" stroke-width="5" stroke-miterlimit="10"/>
</g>
</g>
<defs>
<clipPath id="clip0_2683_2088">
<rect width="1440" height="347" fill="white"/>
</clipPath>
</defs>
</svg>
