<svg width="202" height="48" viewBox="0 0 202 48" fill="none" xmlns="http://www.w3.org/2000/svg">
<path d="M37.1359 36.5258C40.7981 33.138 43.0909 28.2913 43.0909 22.909C43.0909 12.6666 34.7878 4.36353 24.5455 4.36353C14.3031 4.36353 6 12.6666 6 22.909C6 28.1617 8.18378 32.9044 11.693 36.2787C15.0769 33.3843 19.4707 31.6362 24.2727 31.6362C29.21 31.6362 33.7156 33.4841 37.1359 36.5258Z" fill="#262626"/>
<path fill-rule="evenodd" clip-rule="evenodd" d="M20.372 4.63636C20.372 5.9477 21.5351 8.27634 22.67 10.2364L12.5459 16.9091V35.5902C15.8007 33.1094 19.8649 31.6364 24.2732 31.6364C28.9313 31.6364 33.2052 33.2811 36.5459 36.0216V16.9091L26.7987 10.4848C27.9772 8.47662 29.2416 6.00358 29.2416 4.63636C29.2416 2.07577 27.256 0 24.8068 0C22.3575 0 20.372 2.07577 20.372 4.63636ZM28.353 6.14004C28.5796 5.51096 28.6961 4.99944 28.6961 4.63636C28.6961 2.35391 26.9322 0.545455 24.8068 0.545455C22.6813 0.545455 20.9174 2.35391 20.9174 4.63636C20.9174 4.99944 21.0339 5.51096 21.2605 6.14004C21.4834 6.75884 21.7972 7.44966 22.1563 8.15706C22.4606 8.75651 22.7941 9.36128 23.1262 9.9357L24.5459 9L26.3427 10.1842C26.7218 9.53725 27.1087 8.84366 27.4572 8.15706C27.8163 7.44966 28.1301 6.75884 28.353 6.14004ZM26.6329 12.5455C26.6329 12.0999 26.5051 11.6855 26.2858 11.3402C26.069 11.6945 25.8629 12.0229 25.677 12.314C25.2658 12.9583 24.3478 12.9583 23.9365 12.314C23.6873 11.9237 23.4016 11.4664 23.1027 10.9694C22.706 11.3666 22.4589 11.9258 22.4589 12.5455C22.4589 13.7504 23.3933 14.7273 24.5459 14.7273C25.6985 14.7273 26.6329 13.7504 26.6329 12.5455ZM25.2173 12.0205C25.4289 11.689 25.6665 11.3096 25.9157 10.8994C25.5492 10.5657 25.0701 10.3636 24.5459 10.3636C24.1803 10.3636 23.8367 10.4619 23.5379 10.6345C23.8451 11.1467 24.1398 11.6187 24.3963 12.0205C24.5931 12.3289 25.0204 12.3289 25.2173 12.0205Z" fill="#FA9000"/>
<path opacity="0.2" d="M19.6369 29.4544C28.9755 29.4544 36.546 21.884 36.546 12.5453C36.546 11.0923 36.3627 9.68213 36.018 8.33658C32.8616 5.84828 28.8772 4.36353 24.546 4.36353C14.4234 4.36353 6.19509 12.4734 6.00391 22.5502C9.08173 26.7371 14.042 29.4544 19.6369 29.4544Z" fill="white"/>
<path d="M24.4838 47.9999L15.2725 39.8181L33.6952 39.8181L24.4838 47.9999Z" fill="#1B5A31"/>
<path opacity="0.2" d="M29.121 39.8181C27.1307 42.4678 23.962 44.1818 20.3929 44.1818C20.3228 44.1818 20.2528 44.1811 20.183 44.1798L15.2725 39.8181L29.121 39.8181Z" fill="white"/>
<path d="M64.6866 19.3004C64.6003 18.4309 64.2303 17.7554 63.5764 17.274C62.9224 16.7925 62.035 16.5518 60.914 16.5518C60.1523 16.5518 59.5092 16.6596 58.9846 16.8752C58.4601 17.0836 58.0576 17.3746 57.7774 17.7482C57.5043 18.1219 57.3678 18.5459 57.3678 19.0201C57.3534 19.4154 57.4361 19.7603 57.6157 20.0549C57.8025 20.3495 58.0576 20.6046 58.381 20.8202C58.7044 21.0286 59.078 21.2118 59.502 21.3699C59.926 21.5208 60.3787 21.6501 60.8601 21.7579L62.8434 22.2322C63.8063 22.4478 64.6902 22.7352 65.495 23.0945C66.2998 23.4538 66.9968 23.8957 67.586 24.4203C68.1753 24.9448 68.6316 25.5628 68.9549 26.2742C69.2855 26.9856 69.4544 27.8012 69.4615 28.721C69.4544 30.0719 69.1094 31.2432 68.4268 32.2348C67.7513 33.2193 66.774 33.9846 65.495 34.5307C64.2231 35.0697 62.6889 35.3391 60.8925 35.3391C59.1104 35.3391 57.5582 35.0661 56.236 34.5199C54.921 33.9738 53.8935 33.1654 53.1533 32.0947C52.4204 31.0169 52.0359 29.6839 52 28.0958H56.5163C56.5666 28.836 56.7786 29.4539 57.1522 29.9498C57.5331 30.4384 58.0397 30.8085 58.672 31.06C59.3116 31.3043 60.0337 31.4264 60.8386 31.4264C61.629 31.4264 62.3152 31.3115 62.8973 31.0815C63.4865 30.8516 63.9428 30.5318 64.2662 30.1222C64.5896 29.7126 64.7512 29.242 64.7512 28.7102C64.7512 28.2144 64.6039 27.7976 64.3093 27.4599C64.0219 27.1221 63.5979 26.8347 63.0374 26.5976C62.4841 26.3604 61.805 26.1449 61.0002 25.9509L58.5966 25.3472C56.7355 24.8945 55.266 24.1867 54.1881 23.2238C53.1102 22.2609 52.5749 20.9639 52.5821 19.3327C52.5749 17.9962 52.9306 16.8285 53.6491 15.8296C54.3749 14.8308 55.3701 14.0511 56.6349 13.4906C57.8996 12.9301 59.3367 12.6499 60.9463 12.6499C62.5847 12.6499 64.0147 12.9301 65.2363 13.4906C66.4651 14.0511 67.4208 14.8308 68.1034 15.8296C68.7861 16.8285 69.1382 17.9854 69.1597 19.3004H64.6866Z" fill="#171717"/>
<path d="M77.2357 35.3391C76.1794 35.3391 75.238 35.1559 74.4117 34.7894C73.5853 34.4157 72.9314 33.866 72.4499 33.1403C71.9757 32.4073 71.7385 31.4947 71.7385 30.4025C71.7385 29.4827 71.9074 28.7102 72.2451 28.085C72.5829 27.4599 73.0428 26.9569 73.6248 26.576C74.2069 26.1952 74.868 25.9077 75.6081 25.7137C76.3554 25.5197 77.1387 25.3832 77.9579 25.3041C78.9208 25.2035 79.6968 25.1101 80.2861 25.0239C80.8753 24.9305 81.3029 24.7939 81.5687 24.6143C81.8346 24.4346 81.9676 24.1688 81.9676 23.8167V23.752C81.9676 23.0693 81.752 22.5412 81.3208 22.1675C80.8969 21.7939 80.2933 21.607 79.51 21.607C78.6836 21.607 78.0261 21.7903 77.5375 22.1567C77.0489 22.516 76.7255 22.9687 76.5674 23.5149L72.3206 23.1699C72.5362 22.1639 72.9601 21.2944 73.5925 20.5615C74.2248 19.8213 75.0404 19.2537 76.0393 18.8584C77.0453 18.456 78.2094 18.2548 79.5316 18.2548C80.4513 18.2548 81.3316 18.3626 82.1724 18.5782C83.0203 18.7938 83.7712 19.1279 84.4251 19.5806C85.0862 20.0333 85.6072 20.6154 85.988 21.3268C86.3689 22.031 86.5593 22.8753 86.5593 23.8598V35.0265H82.2047V32.7307H82.0753C81.8095 33.2481 81.4538 33.7043 81.0083 34.0996C80.5627 34.4876 80.0274 34.793 79.4022 35.0158C78.7771 35.2313 78.0549 35.3391 77.2357 35.3391ZM78.5507 32.1702C79.2262 32.1702 79.8226 32.0372 80.34 31.7714C80.8573 31.4983 81.2633 31.1318 81.558 30.6719C81.8526 30.212 81.9999 29.6911 81.9999 29.109V27.3521C81.8562 27.4455 81.6586 27.5317 81.4071 27.6108C81.1627 27.6826 80.8861 27.7509 80.5771 27.8156C80.2681 27.8731 79.9591 27.927 79.6501 27.9773C79.3411 28.0204 79.0609 28.0599 78.8094 28.0958C78.2705 28.1749 77.7998 28.3006 77.3974 28.4731C76.995 28.6455 76.6824 28.8791 76.4596 29.1737C76.2369 29.4611 76.1255 29.8204 76.1255 30.2516C76.1255 30.8767 76.3518 31.3546 76.8045 31.6851C77.2644 32.0085 77.8465 32.1702 78.5507 32.1702Z" fill="#171717"/>
<path d="M94.7134 12.9517V35.0265H90.1217V12.9517H94.7134Z" fill="#171717"/>
<path d="M105.937 35.3499C104.234 35.3499 102.768 35.005 101.539 34.3151C100.317 33.6181 99.3761 32.6337 98.715 31.3618C98.0539 30.0827 97.7234 28.5701 97.7234 26.8239C97.7234 25.1209 98.0539 23.6262 98.715 22.34C99.3761 21.0537 100.307 20.0513 101.507 19.3327C102.714 18.6141 104.13 18.2548 105.754 18.2548C106.846 18.2548 107.863 18.4309 108.804 18.783C109.752 19.1279 110.579 19.6489 111.283 20.3459C111.994 21.0429 112.548 21.9196 112.943 22.9759C113.338 24.0251 113.536 25.2538 113.536 26.6622V27.9234H99.5557V25.0778H109.213C109.213 24.4167 109.07 23.831 108.782 23.3208C108.495 22.8106 108.096 22.4118 107.586 22.1244C107.083 21.8298 106.497 21.6825 105.829 21.6825C105.132 21.6825 104.514 21.8442 103.975 22.1675C103.443 22.4837 103.026 22.9113 102.725 23.4502C102.423 23.9819 102.268 24.5748 102.261 25.2287V27.9341C102.261 28.7533 102.412 29.4611 102.714 30.0575C103.023 30.654 103.458 31.1139 104.018 31.4372C104.579 31.7606 105.243 31.9223 106.012 31.9223C106.522 31.9223 106.989 31.8504 107.413 31.7067C107.837 31.563 108.2 31.3474 108.502 31.06C108.804 30.7725 109.034 30.4204 109.192 30.0037L113.439 30.2839C113.223 31.3043 112.781 32.1953 112.113 32.957C111.452 33.7115 110.597 34.3008 109.548 34.7247C108.506 35.1415 107.302 35.3499 105.937 35.3499Z" fill="#171717"/>
<path d="M130.307 23.1915L126.104 23.4502C126.032 23.0909 125.877 22.7675 125.64 22.4801C125.403 22.1855 125.091 21.9519 124.703 21.7795C124.322 21.5998 123.865 21.51 123.334 21.51C122.622 21.51 122.022 21.6609 121.534 21.9627C121.045 22.2573 120.801 22.6526 120.801 23.1484C120.801 23.5436 120.959 23.8777 121.275 24.1508C121.591 24.4239 122.134 24.643 122.902 24.8083L125.899 25.4119C127.509 25.7425 128.709 26.2742 129.499 27.0072C130.289 27.7401 130.685 28.703 130.685 29.8959C130.685 30.9809 130.365 31.933 129.725 32.7522C129.093 33.5714 128.224 34.2109 127.117 34.6708C126.018 35.1235 124.749 35.3499 123.312 35.3499C121.12 35.3499 119.374 34.8936 118.074 33.981C116.78 33.0612 116.022 31.8109 115.799 30.23L120.316 29.9929C120.452 30.6612 120.783 31.1713 121.307 31.5235C121.832 31.8684 122.504 32.0408 123.323 32.0408C124.128 32.0408 124.774 31.8863 125.263 31.5773C125.759 31.2612 126.01 30.8552 126.018 30.3594C126.01 29.9426 125.834 29.6012 125.489 29.3354C125.144 29.0623 124.613 28.8539 123.894 28.7102L121.027 28.1389C119.41 27.8156 118.207 27.2551 117.416 26.4575C116.633 25.6598 116.241 24.643 116.241 23.4071C116.241 22.3436 116.529 21.4274 117.104 20.6585C117.686 19.8896 118.501 19.2968 119.55 18.88C120.607 18.4632 121.843 18.2548 123.258 18.2548C125.349 18.2548 126.995 18.6968 128.195 19.5806C129.402 20.4645 130.106 21.6681 130.307 23.1915Z" fill="#171717"/>
<path d="M135.765 34.8756V32.1055L146.781 16.6488H135.744V12.8008H152.645V15.5709L141.618 31.0276H152.666V34.8756H135.765Z" fill="#FA9000"/>
<path d="M163.642 35.199C161.967 35.199 160.519 34.8433 159.298 34.1319C158.083 33.4133 157.146 32.4145 156.484 31.1354C155.823 29.8492 155.493 28.3581 155.493 26.6622C155.493 24.952 155.823 23.4574 156.484 22.1783C157.146 20.892 158.083 19.8932 159.298 19.1818C160.519 18.4632 161.967 18.1039 163.642 18.1039C165.316 18.1039 166.76 18.4632 167.975 19.1818C169.196 19.8932 170.138 20.892 170.799 22.1783C171.46 23.4574 171.79 24.952 171.79 26.6622C171.79 28.3581 171.46 29.8492 170.799 31.1354C170.138 32.4145 169.196 33.4133 167.975 34.1319C166.76 34.8433 165.316 35.199 163.642 35.199ZM163.663 31.642C164.425 31.642 165.061 31.4264 165.571 30.9953C166.081 30.557 166.466 29.9605 166.724 29.206C166.99 28.4515 167.123 27.5928 167.123 26.6299C167.123 25.667 166.99 24.8083 166.724 24.0538C166.466 23.2993 166.081 22.7029 165.571 22.2645C165.061 21.8262 164.425 21.607 163.663 21.607C162.894 21.607 162.248 21.8262 161.723 22.2645C161.206 22.7029 160.814 23.2993 160.548 24.0538C160.289 24.8083 160.16 25.667 160.16 26.6299C160.16 27.5928 160.289 28.4515 160.548 29.206C160.814 29.9605 161.206 30.557 161.723 30.9953C162.248 31.4264 162.894 31.642 163.663 31.642Z" fill="#FA9000"/>
<path d="M183.582 18.3195V21.7687H173.612V18.3195H183.582ZM175.875 14.3529H180.467V29.7881C180.467 30.212 180.532 30.5426 180.661 30.7797C180.791 31.0097 180.97 31.1713 181.2 31.2648C181.437 31.3582 181.71 31.4049 182.019 31.4049C182.235 31.4049 182.45 31.3869 182.666 31.351C182.882 31.3079 183.047 31.2755 183.162 31.254L183.884 34.6708C183.654 34.7427 183.331 34.8253 182.914 34.9188C182.497 35.0194 181.991 35.0804 181.394 35.102C180.288 35.1451 179.317 34.9978 178.484 34.6601C177.658 34.3223 177.014 33.7978 176.554 33.0864C176.095 32.375 175.868 31.4767 175.875 30.3917V14.3529Z" fill="#FA9000"/>
<path d="M193.941 35.199C192.238 35.199 190.772 34.8541 189.543 34.1642C188.321 33.4672 187.38 32.4828 186.719 31.2109C186.058 29.9318 185.727 28.4192 185.727 26.673C185.727 24.97 186.058 23.4753 186.719 22.1891C187.38 20.9028 188.31 19.9004 189.511 19.1818C190.718 18.4632 192.133 18.1039 193.757 18.1039C194.85 18.1039 195.866 18.28 196.808 18.6321C197.756 18.977 198.583 19.498 199.287 20.195C199.998 20.892 200.552 21.7687 200.947 22.825C201.342 23.8741 201.54 25.1029 201.54 26.5113V27.7725H187.56V24.9269H197.217C197.217 24.2658 197.074 23.6801 196.786 23.1699C196.499 22.6597 196.1 22.2609 195.59 21.9735C195.087 21.6789 194.501 21.5316 193.833 21.5316C193.136 21.5316 192.518 21.6933 191.979 22.0166C191.447 22.3328 191.03 22.7603 190.729 23.2993C190.427 23.831 190.272 24.4239 190.265 25.0778V27.7832C190.265 28.6024 190.416 29.3102 190.718 29.9066C191.027 30.5031 191.461 30.963 192.022 31.2863C192.582 31.6097 193.247 31.7714 194.016 31.7714C194.526 31.7714 194.993 31.6995 195.417 31.5558C195.841 31.4121 196.204 31.1965 196.506 30.9091C196.808 30.6216 197.038 30.2695 197.196 29.8528L201.443 30.133C201.227 31.1534 200.785 32.0444 200.117 32.8061C199.456 33.5606 198.601 34.1499 197.551 34.5738C196.509 34.9906 195.306 35.199 193.941 35.199Z" fill="#FA9000"/>
</svg>
