<svg width="202" height="48" viewBox="0 0 202 48" fill="none" xmlns="http://www.w3.org/2000/svg">
<path d="M37.1359 36.5256C40.7981 33.1378 43.0909 28.291 43.0909 22.9087C43.0909 12.6664 34.7878 4.36328 24.5455 4.36328C14.3031 4.36328 6 12.6664 6 22.9087C6 28.1615 8.18378 32.9042 11.693 36.2784C15.0769 33.384 19.4707 31.636 24.2727 31.636C29.21 31.636 33.7156 33.4838 37.1359 36.5256Z" fill="#262626"/>
<path fill-rule="evenodd" clip-rule="evenodd" d="M20.372 4.63636C20.372 5.9477 21.5351 8.27634 22.67 10.2364L12.5459 16.9091V35.5902C15.8007 33.1094 19.8649 31.6364 24.2732 31.6364C28.9313 31.6364 33.2052 33.2811 36.5459 36.0216V16.9091L26.7987 10.4848C27.9772 8.47662 29.2416 6.00358 29.2416 4.63636C29.2416 2.07577 27.256 0 24.8068 0C22.3575 0 20.372 2.07577 20.372 4.63636ZM28.353 6.14004C28.5796 5.51096 28.6961 4.99944 28.6961 4.63636C28.6961 2.35391 26.9322 0.545455 24.8068 0.545455C22.6813 0.545455 20.9174 2.35391 20.9174 4.63636C20.9174 4.99944 21.0339 5.51096 21.2605 6.14004C21.4834 6.75884 21.7972 7.44966 22.1563 8.15706C22.4606 8.75651 22.7941 9.36128 23.1262 9.9357L24.5459 9L26.3427 10.1842C26.7218 9.53725 27.1087 8.84366 27.4572 8.15706C27.8163 7.44966 28.1301 6.75884 28.353 6.14004ZM26.6329 12.5455C26.6329 12.0999 26.5051 11.6855 26.2858 11.3402C26.069 11.6945 25.8629 12.0229 25.677 12.314C25.2658 12.9583 24.3478 12.9583 23.9365 12.314C23.6873 11.9237 23.4016 11.4664 23.1027 10.9694C22.706 11.3666 22.4589 11.9258 22.4589 12.5455C22.4589 13.7504 23.3933 14.7273 24.5459 14.7273C25.6985 14.7273 26.6329 13.7504 26.6329 12.5455ZM25.2173 12.0205C25.4289 11.689 25.6665 11.3096 25.9157 10.8994C25.5492 10.5657 25.0701 10.3636 24.5459 10.3636C24.1803 10.3636 23.8367 10.4619 23.5379 10.6345C23.8451 11.1467 24.1398 11.6187 24.3963 12.0205C24.5931 12.3289 25.0204 12.3289 25.2173 12.0205Z" fill="#FA9000"/>
<path opacity="0.2" d="M19.6369 29.4542C28.9755 29.4542 36.546 21.8837 36.546 12.5451C36.546 11.0921 36.3627 9.68188 36.018 8.33634C32.8616 5.84804 28.8772 4.36328 24.546 4.36328C14.4234 4.36328 6.19509 12.4732 6.00391 22.55C9.08173 26.7369 14.042 29.4542 19.6369 29.4542Z" fill="white"/>
<path d="M24.4838 48.0002L15.2725 39.8184L33.6952 39.8184L24.4838 48.0002Z" fill="#1B5A31"/>
<path opacity="0.2" d="M29.121 39.8184C27.1307 42.4681 23.962 44.182 20.3929 44.182C20.3228 44.182 20.2528 44.1813 20.183 44.18L15.2725 39.8184L29.121 39.8184Z" fill="white"/>
<path d="M64.6866 19.3009C64.6003 18.4314 64.2303 17.7559 63.5764 17.2745C62.9224 16.793 62.035 16.5523 60.914 16.5523C60.1523 16.5523 59.5092 16.6601 58.9846 16.8757C58.4601 17.084 58.0576 17.3751 57.7774 17.7487C57.5043 18.1224 57.3678 18.5464 57.3678 19.0206C57.3534 19.4158 57.4361 19.7608 57.6157 20.0554C57.8025 20.35 58.0576 20.6051 58.381 20.8207C58.7044 21.0291 59.078 21.2123 59.502 21.3704C59.926 21.5213 60.3787 21.6506 60.8601 21.7584L62.8434 22.2327C63.8063 22.4483 64.6902 22.7357 65.495 23.095C66.2998 23.4543 66.9968 23.8962 67.586 24.4208C68.1753 24.9453 68.6316 25.5633 68.9549 26.2747C69.2855 26.9861 69.4544 27.8017 69.4615 28.7215C69.4544 30.0724 69.1094 31.2437 68.4268 32.2353C67.7513 33.2198 66.774 33.9851 65.495 34.5312C64.2231 35.0701 62.6889 35.3396 60.8925 35.3396C59.1104 35.3396 57.5582 35.0666 56.236 34.5204C54.921 33.9743 53.8935 33.1659 53.1533 32.0952C52.4204 31.0173 52.0359 29.6844 52 28.0963H56.5163C56.5666 28.8364 56.7786 29.4544 57.1522 29.9502C57.5331 30.4389 58.0397 30.809 58.672 31.0605C59.3116 31.3048 60.0337 31.4269 60.8386 31.4269C61.629 31.4269 62.3152 31.312 62.8973 31.082C63.4865 30.8521 63.9428 30.5323 64.2662 30.1227C64.5896 29.7131 64.7512 29.2424 64.7512 28.7107C64.7512 28.2149 64.6039 27.7981 64.3093 27.4604C64.0219 27.1226 63.5979 26.8352 63.0374 26.5981C62.4841 26.3609 61.805 26.1454 61.0002 25.9513L58.5966 25.3477C56.7355 24.895 55.266 24.1872 54.1881 23.2243C53.1102 22.2614 52.5749 20.9644 52.5821 19.3332C52.5749 17.9966 52.9306 16.8289 53.6491 15.8301C54.3749 14.8313 55.3701 14.0516 56.6349 13.4911C57.8996 12.9306 59.3367 12.6504 60.9463 12.6504C62.5847 12.6504 64.0147 12.9306 65.2363 13.4911C66.4651 14.0516 67.4208 14.8313 68.1034 15.8301C68.7861 16.8289 69.1382 17.9859 69.1597 19.3009H64.6866Z" fill="white"/>
<path d="M77.2357 35.3396C76.1794 35.3396 75.238 35.1564 74.4117 34.7899C73.5853 34.4162 72.9314 33.8665 72.4499 33.1408C71.9757 32.4078 71.7385 31.4952 71.7385 30.403C71.7385 29.4832 71.9074 28.7107 72.2451 28.0855C72.5829 27.4604 73.0428 26.9574 73.6248 26.5765C74.2069 26.1957 74.868 25.9082 75.6081 25.7142C76.3554 25.5202 77.1387 25.3837 77.9579 25.3046C78.9208 25.204 79.6968 25.1106 80.2861 25.0244C80.8753 24.931 81.3029 24.7944 81.5687 24.6148C81.8346 24.4351 81.9676 24.1693 81.9676 23.8172V23.7525C81.9676 23.0698 81.752 22.5417 81.3208 22.168C80.8969 21.7943 80.2933 21.6075 79.51 21.6075C78.6836 21.6075 78.0261 21.7908 77.5375 22.1572C77.0489 22.5165 76.7255 22.9692 76.5674 23.5153L72.3206 23.1704C72.5362 22.1644 72.9601 21.2949 73.5925 20.562C74.2248 19.8218 75.0404 19.2542 76.0393 18.8589C77.0453 18.4565 78.2094 18.2553 79.5316 18.2553C80.4513 18.2553 81.3316 18.3631 82.1724 18.5787C83.0203 18.7943 83.7712 19.1284 84.4251 19.5811C85.0862 20.0338 85.6072 20.6159 85.988 21.3273C86.3689 22.0315 86.5593 22.8758 86.5593 23.8603V35.027H82.2047V32.7312H82.0753C81.8095 33.2485 81.4538 33.7048 81.0083 34.1001C80.5627 34.4881 80.0274 34.7935 79.4022 35.0163C78.7771 35.2318 78.0549 35.3396 77.2357 35.3396ZM78.5507 32.1707C79.2262 32.1707 79.8226 32.0377 80.34 31.7719C80.8573 31.4988 81.2633 31.1323 81.558 30.6724C81.8526 30.2125 81.9999 29.6916 81.9999 29.1095V27.3526C81.8562 27.446 81.6586 27.5322 81.4071 27.6113C81.1627 27.6831 80.8861 27.7514 80.5771 27.8161C80.2681 27.8735 79.9591 27.9274 79.6501 27.9777C79.3411 28.0209 79.0609 28.0604 78.8094 28.0963C78.2705 28.1754 77.7998 28.3011 77.3974 28.4736C76.995 28.646 76.6824 28.8796 76.4596 29.1742C76.2369 29.4616 76.1255 29.8209 76.1255 30.2521C76.1255 30.8772 76.3518 31.3551 76.8045 31.6856C77.2644 32.009 77.8465 32.1707 78.5507 32.1707Z" fill="white"/>
<path d="M94.7134 12.9522V35.027H90.1217V12.9522H94.7134Z" fill="white"/>
<path d="M105.937 35.3504C104.234 35.3504 102.768 35.0055 101.539 34.3156C100.317 33.6186 99.3761 32.6342 98.715 31.3623C98.0539 30.0832 97.7234 28.5706 97.7234 26.8244C97.7234 25.1214 98.0539 23.6267 98.715 22.3405C99.3761 21.0542 100.307 20.0518 101.507 19.3332C102.714 18.6146 104.13 18.2553 105.754 18.2553C106.846 18.2553 107.863 18.4314 108.804 18.7835C109.752 19.1284 110.579 19.6494 111.283 20.3464C111.994 21.0434 112.548 21.9201 112.943 22.9764C113.338 24.0255 113.536 25.2543 113.536 26.6627V27.9238H99.5557V25.0783H109.213C109.213 24.4172 109.07 23.8315 108.782 23.3213C108.495 22.8111 108.096 22.4123 107.586 22.1249C107.083 21.8303 106.497 21.683 105.829 21.683C105.132 21.683 104.514 21.8446 103.975 22.168C103.443 22.4842 103.026 22.9117 102.725 23.4507C102.423 23.9824 102.268 24.5753 102.261 25.2292V27.9346C102.261 28.7538 102.412 29.4616 102.714 30.058C103.023 30.6545 103.458 31.1144 104.018 31.4377C104.579 31.7611 105.243 31.9228 106.012 31.9228C106.522 31.9228 106.989 31.8509 107.413 31.7072C107.837 31.5635 108.2 31.3479 108.502 31.0605C108.804 30.773 109.034 30.4209 109.192 30.0041L113.439 30.2844C113.223 31.3048 112.781 32.1958 112.113 32.9575C111.452 33.712 110.597 34.3013 109.548 34.7252C108.506 35.142 107.302 35.3504 105.937 35.3504Z" fill="white"/>
<path d="M130.307 23.192L126.104 23.4507C126.032 23.0914 125.877 22.768 125.64 22.4806C125.403 22.186 125.091 21.9524 124.703 21.78C124.322 21.6003 123.865 21.5105 123.334 21.5105C122.622 21.5105 122.022 21.6614 121.534 21.9632C121.045 22.2578 120.801 22.653 120.801 23.1489C120.801 23.5441 120.959 23.8782 121.275 24.1513C121.591 24.4244 122.134 24.6435 122.902 24.8088L125.899 25.4124C127.509 25.743 128.709 26.2747 129.499 27.0077C130.289 27.7406 130.685 28.7035 130.685 29.8964C130.685 30.9814 130.365 31.9335 129.725 32.7527C129.093 33.5719 128.224 34.2114 127.117 34.6713C126.018 35.124 124.749 35.3504 123.312 35.3504C121.12 35.3504 119.374 34.8941 118.074 33.9815C116.78 33.0617 116.022 31.8114 115.799 30.2305L120.316 29.9934C120.452 30.6616 120.783 31.1718 121.307 31.5239C121.832 31.8689 122.504 32.0413 123.323 32.0413C124.128 32.0413 124.774 31.8868 125.263 31.5778C125.759 31.2617 126.01 30.8557 126.018 30.3598C126.01 29.9431 125.834 29.6017 125.489 29.3359C125.144 29.0628 124.613 28.8544 123.894 28.7107L121.027 28.1394C119.41 27.8161 118.207 27.2556 117.416 26.4579C116.633 25.6603 116.241 24.6435 116.241 23.4076C116.241 22.3441 116.529 21.4279 117.104 20.659C117.686 19.8901 118.501 19.2973 119.55 18.8805C120.607 18.4637 121.843 18.2553 123.258 18.2553C125.349 18.2553 126.995 18.6973 128.195 19.5811C129.402 20.465 130.106 21.6686 130.307 23.192Z" fill="white"/>
<path d="M135.765 34.8761V32.106L146.781 16.6493H135.744V12.8013H152.645V15.5714L141.618 31.0281H152.666V34.8761H135.765Z" fill="#FA9000"/>
<path d="M163.642 35.1995C161.967 35.1995 160.519 34.8438 159.298 34.1324C158.083 33.4138 157.146 32.415 156.484 31.1359C155.823 29.8496 155.493 28.3586 155.493 26.6627C155.493 24.9525 155.823 23.4579 156.484 22.1788C157.146 20.8925 158.083 19.8937 159.298 19.1823C160.519 18.4637 161.967 18.1044 163.642 18.1044C165.316 18.1044 166.76 18.4637 167.975 19.1823C169.196 19.8937 170.138 20.8925 170.799 22.1788C171.46 23.4579 171.79 24.9525 171.79 26.6627C171.79 28.3586 171.46 29.8496 170.799 31.1359C170.138 32.415 169.196 33.4138 167.975 34.1324C166.76 34.8438 165.316 35.1995 163.642 35.1995ZM163.663 31.6425C164.425 31.6425 165.061 31.4269 165.571 30.9958C166.081 30.5574 166.466 29.961 166.724 29.2065C166.99 28.452 167.123 27.5933 167.123 26.6304C167.123 25.6675 166.99 24.8088 166.724 24.0543C166.466 23.2998 166.081 22.7034 165.571 22.265C165.061 21.8267 164.425 21.6075 163.663 21.6075C162.894 21.6075 162.248 21.8267 161.723 22.265C161.206 22.7034 160.814 23.2998 160.548 24.0543C160.289 24.8088 160.16 25.6675 160.16 26.6304C160.16 27.5933 160.289 28.452 160.548 29.2065C160.814 29.961 161.206 30.5574 161.723 30.9958C162.248 31.4269 162.894 31.6425 163.663 31.6425Z" fill="#FA9000"/>
<path d="M183.582 18.32V21.7692H173.612V18.32H183.582ZM175.875 14.3534H180.467V29.7886C180.467 30.2125 180.532 30.5431 180.661 30.7802C180.791 31.0102 180.97 31.1718 181.2 31.2653C181.437 31.3587 181.71 31.4054 182.019 31.4054C182.235 31.4054 182.45 31.3874 182.666 31.3515C182.882 31.3084 183.047 31.276 183.162 31.2545L183.884 34.6713C183.654 34.7432 183.331 34.8258 182.914 34.9192C182.497 35.0198 181.991 35.0809 181.394 35.1025C180.288 35.1456 179.317 34.9983 178.484 34.6606C177.658 34.3228 177.014 33.7983 176.554 33.0869C176.095 32.3755 175.868 31.4772 175.875 30.3922V14.3534Z" fill="#FA9000"/>
<path d="M193.941 35.1995C192.238 35.1995 190.772 34.8546 189.543 34.1647C188.321 33.4677 187.38 32.4832 186.719 31.2114C186.058 29.9323 185.727 28.4197 185.727 26.6735C185.727 24.9705 186.058 23.4758 186.719 22.1896C187.38 20.9033 188.31 19.9009 189.511 19.1823C190.718 18.4637 192.133 18.1044 193.757 18.1044C194.85 18.1044 195.866 18.2805 196.808 18.6326C197.756 18.9775 198.583 19.4985 199.287 20.1955C199.998 20.8925 200.552 21.7692 200.947 22.8255C201.342 23.8746 201.54 25.1034 201.54 26.5118V27.7729H187.56V24.9274H197.217C197.217 24.2663 197.074 23.6806 196.786 23.1704C196.499 22.6602 196.1 22.2614 195.59 21.974C195.087 21.6794 194.501 21.5321 193.833 21.5321C193.136 21.5321 192.518 21.6937 191.979 22.0171C191.447 22.3333 191.03 22.7608 190.729 23.2998C190.427 23.8315 190.272 24.4244 190.265 25.0783V27.7837C190.265 28.6029 190.416 29.3107 190.718 29.9071C191.027 30.5036 191.461 30.9634 192.022 31.2868C192.582 31.6102 193.247 31.7719 194.016 31.7719C194.526 31.7719 194.993 31.7 195.417 31.5563C195.841 31.4126 196.204 31.197 196.506 30.9096C196.808 30.6221 197.038 30.27 197.196 29.8532L201.443 30.1335C201.227 31.1539 200.785 32.0449 200.117 32.8066C199.456 33.5611 198.601 34.1504 197.551 34.5743C196.509 34.9911 195.306 35.1995 193.941 35.1995Z" fill="#FA9000"/>
</svg>
