<svg width="25" height="24" viewBox="0 0 25 24" fill="none" xmlns="http://www.w3.org/2000/svg">
<path d="M6.33301 11V15M18.333 9V13M17.333 4C19.7817 4 21.1061 4.37476 21.7651 4.66544C21.8529 4.70415 21.8968 4.72351 22.0234 4.84437C22.0993 4.91682 22.2379 5.12939 22.2735 5.22809C22.333 5.39274 22.333 5.48274 22.333 5.66274V16.4111C22.333 17.3199 22.333 17.7743 22.1967 18.0079C22.0581 18.2454 21.9244 18.3559 21.6649 18.4472C21.4099 18.5369 20.895 18.438 19.8652 18.2401C19.1444 18.1017 18.2895 18 17.333 18C14.333 18 11.333 20 7.33301 20C4.8843 20 3.55987 19.6252 2.90089 19.3346C2.81313 19.2958 2.76925 19.2765 2.64261 19.1556C2.56669 19.0832 2.42813 18.8706 2.39248 18.7719C2.33301 18.6073 2.33301 18.5173 2.33301 18.3373L2.33301 7.58885C2.33301 6.68009 2.33301 6.2257 2.46929 5.99214C2.60791 5.75456 2.7416 5.64412 3.00107 5.55281C3.25614 5.46305 3.77104 5.56198 4.80084 5.75985C5.52163 5.89834 6.37649 6 7.33301 6C10.333 6 13.333 4 17.333 4ZM14.833 12C14.833 13.3807 13.7137 14.5 12.333 14.5C10.9523 14.5 9.83301 13.3807 9.83301 12C9.83301 10.6193 10.9523 9.5 12.333 9.5C13.7137 9.5 14.833 10.6193 14.833 12Z" stroke="#FA9000" stroke-width="2" stroke-linecap="round" stroke-linejoin="round"/>
</svg>
