<svg width="25" height="24" viewBox="0 0 25 24" fill="none" xmlns="http://www.w3.org/2000/svg">
<path d="M9.33301 7H4.93301C4.37296 7 4.09293 7 3.87902 7.10899C3.69086 7.20487 3.53787 7.35785 3.442 7.54601C3.33301 7.75992 3.33301 8.03995 3.33301 8.6V19.4C3.33301 19.9601 3.33301 20.2401 3.442 20.454C3.53787 20.6422 3.69086 20.7951 3.87902 20.891C4.09293 21 4.37296 21 4.93301 21H9.33301M9.33301 21H15.333M9.33301 21L9.33301 4.6C9.33301 4.03995 9.33301 3.75992 9.442 3.54601C9.53787 3.35785 9.69086 3.20487 9.87902 3.10899C10.0929 3 10.373 3 10.933 3L13.733 3C14.2931 3 14.5731 3 14.787 3.10899C14.9752 3.20487 15.1281 3.35785 15.224 3.54601C15.333 3.75992 15.333 4.03995 15.333 4.6V21M15.333 11H19.733C20.2931 11 20.5731 11 20.787 11.109C20.9752 11.2049 21.1281 11.3578 21.224 11.546C21.333 11.7599 21.333 12.0399 21.333 12.6V19.4C21.333 19.9601 21.333 20.2401 21.224 20.454C21.1281 20.6422 20.9752 20.7951 20.787 20.891C20.5731 21 20.2931 21 19.733 21H15.333" stroke="#FA9000" stroke-width="2" stroke-linecap="round" stroke-linejoin="round"/>
</svg>
