<svg width="25" height="24" viewBox="0 0 25 24" fill="none" xmlns="http://www.w3.org/2000/svg">
<path d="M21.167 7.27783L12.667 12.0001M12.667 12.0001L4.16696 7.27783M12.667 12.0001L12.667 21.5001M21.667 16.0586V7.94153C21.667 7.59889 21.667 7.42757 21.6165 7.27477C21.5718 7.13959 21.4988 7.01551 21.4024 6.91082C21.2933 6.79248 21.1435 6.70928 20.844 6.54288L13.444 2.43177C13.1604 2.27421 13.0186 2.19543 12.8684 2.16454C12.7355 2.13721 12.5985 2.13721 12.4655 2.16454C12.3154 2.19543 12.1736 2.27421 11.89 2.43177L4.48996 6.54288C4.19044 6.70928 4.04068 6.79248 3.93163 6.91082C3.83515 7.01551 3.76214 7.13959 3.71748 7.27477C3.66699 7.42757 3.66699 7.59889 3.66699 7.94153V16.0586C3.66699 16.4013 3.66699 16.5726 3.71748 16.7254C3.76214 16.8606 3.83515 16.9847 3.93163 17.0893C4.04068 17.2077 4.19044 17.2909 4.48996 17.4573L11.89 21.5684C12.1736 21.726 12.3154 21.8047 12.4655 21.8356C12.5985 21.863 12.7355 21.863 12.8684 21.8356C13.0186 21.8047 13.1604 21.726 13.444 21.5684L20.844 17.4573C21.1435 17.2909 21.2933 17.2077 21.4024 17.0893C21.4988 16.9847 21.5718 16.8606 21.6165 16.7254C21.667 16.5726 21.667 16.4013 21.667 16.0586Z" stroke="#FA9000" stroke-width="2" stroke-linecap="round" stroke-linejoin="round"/>
</svg>
