<svg width="28" height="24" viewBox="0 0 28 24" fill="none" xmlns="http://www.w3.org/2000/svg">
<path d="M12.056 23.256V15.192C12.056 11.592 11.072 8.448 9.104 5.76C7.136 3.024 4.112 1.344 0.0319974 0.719999V5.976C2.384 6.264 3.944 7.032 4.712 8.28C5.48 9.528 5.864 11.184 5.864 13.248L10.112 12.384H0.175998V23.256H12.056ZM27.68 23.256V15.192C27.68 11.592 26.696 8.448 24.728 5.76C22.76 3.024 19.736 1.344 15.656 0.719999V5.976C18.008 6.264 19.568 7.032 20.336 8.28C21.104 9.528 21.488 11.184 21.488 13.248L25.736 12.384H15.8V23.256H27.68Z" fill="#E5E5E5"/>
</svg>
