<svg width="28" height="24" viewBox="0 0 28 24" fill="none" xmlns="http://www.w3.org/2000/svg">
<path d="M15.944 23.256V15.192C15.944 11.592 16.928 8.448 18.896 5.76C20.864 3.024 23.888 1.344 27.968 0.719999V5.976C25.616 6.264 24.056 7.032 23.288 8.28C22.52 9.528 22.136 11.184 22.136 13.248L17.888 12.384H27.824V23.256H15.944ZM0.32 23.256V15.192C0.32 11.592 1.304 8.448 3.272 5.76C5.24 3.024 8.264 1.344 12.344 0.719999V5.976C9.992 6.264 8.432 7.032 7.664 8.28C6.896 9.528 6.512 11.184 6.512 13.248L2.264 12.384H12.2V23.256H0.32Z" fill="#E5E5E5"/>
</svg>
