<svg width="25" height="24" viewBox="0 0 25 24" fill="none" xmlns="http://www.w3.org/2000/svg">
<path d="M22.5 10.5L22.0256 6.70463C21.8395 5.21602 21.7465 4.47169 21.3961 3.9108C21.0875 3.41662 20.6416 3.02301 20.113 2.77804C19.513 2.5 18.7629 2.5 17.2626 2.5H7.73735C6.23714 2.5 5.48704 2.5 4.88702 2.77804C4.35838 3.02301 3.9125 3.41662 3.60386 3.9108C3.25354 4.47169 3.1605 5.21601 2.97442 6.70463L2.5 10.5M6 14.5H19M6 14.5C4.067 14.5 2.5 12.933 2.5 11C2.5 9.067 4.067 7.5 6 7.5H19C20.933 7.5 22.5 9.067 22.5 11C22.5 12.933 20.933 14.5 19 14.5M6 14.5C4.067 14.5 2.5 16.067 2.5 18C2.5 19.933 4.067 21.5 6 21.5H19C20.933 21.5 22.5 19.933 22.5 18C22.5 16.067 20.933 14.5 19 14.5M6.5 11H6.51M6.5 18H6.51M12.5 11H18.5M12.5 18H18.5" stroke="#FA9000" stroke-width="2" stroke-linecap="round" stroke-linejoin="round"/>
</svg>
