<svg width="111" height="64" viewBox="0 0 111 64" fill="none" xmlns="http://www.w3.org/2000/svg">
    <mask id="mask0_2440_961" style="mask-type:luminance" maskUnits="userSpaceOnUse" x="4" y="2" width="103" height="60">
        <path d="M77.3462 2.49341H33.6534C17.3545 2.49341 4.1416 15.7511 4.1416 32.1054C4.1416 48.4596 17.3545 61.7173 33.6534 61.7173H77.3462C93.6451 61.7173 106.858 48.4596 106.858 32.1054C106.858 15.7511 93.6451 2.49341 77.3462 2.49341Z" fill="white"/>
    </mask>
    <g mask="url(#mask0_2440_961)">
        <path d="M77.3462 2.49341H33.6534C17.3545 2.49341 4.1416 15.7511 4.1416 32.1054C4.1416 48.4596 17.3545 61.7173 33.6534 61.7173H77.3462C93.6451 61.7173 106.858 48.4596 106.858 32.1054C106.858 15.7511 93.6451 2.49341 77.3462 2.49341Z" fill="#FA9000"/>
        <g filter="url(#filter0_f_2440_961)">
            <path d="M57.0327 20.1837C73.9667 20.1837 87.6943 16.2236 87.6943 11.3385C87.6943 6.45351 73.9667 2.49341 57.0327 2.49341C40.0988 2.49341 26.3711 6.45351 26.3711 11.3385C26.3711 16.2236 40.0988 20.1837 57.0327 20.1837Z" fill="#FFFAE9"/>
        </g>
        <g filter="url(#filter1_ii_2440_961)">
            <path d="M77.3467 8.6438H33.6539C20.7418 8.6438 10.2744 19.1467 10.2744 32.1026C10.2744 45.0585 20.7418 55.5614 33.6539 55.5614H77.3467C90.2588 55.5614 100.726 45.0585 100.726 32.1026C100.726 19.1467 90.2588 8.6438 77.3467 8.6438Z" fill="white"/>
            <path d="M77.3467 8.6438H33.6539C20.7418 8.6438 10.2744 19.1467 10.2744 32.1026C10.2744 45.0585 20.7418 55.5614 33.6539 55.5614H77.3467C90.2588 55.5614 100.726 45.0585 100.726 32.1026C100.726 19.1467 90.2588 8.6438 77.3467 8.6438Z" fill="#FA9000"/>
            <g filter="url(#filter2_d_2440_961)">
                <path d="M33.6554 49.4095C43.1807 49.4095 50.9025 41.6614 50.9025 32.1038C50.9025 22.5461 43.1807 14.7981 33.6554 14.7981C24.13 14.7981 16.4082 22.5461 16.4082 32.1038C16.4082 41.6614 24.13 49.4095 33.6554 49.4095Z" fill="white"/>
            </g>
        </g>
    </g>
    <defs>
        <filter id="filter0_f_2440_961" x="6.37109" y="-17.5066" width="101.323" height="57.6902" filterUnits="userSpaceOnUse" color-interpolation-filters="sRGB">
            <feFlood flood-opacity="0" result="BackgroundImageFix"/>
            <feBlend mode="normal" in="SourceGraphic" in2="BackgroundImageFix" result="shape"/>
            <feGaussianBlur stdDeviation="10" result="effect1_foregroundBlur_2440_961"/>
        </filter>
        <filter id="filter1_ii_2440_961" x="10.2744" y="7.6438" width="90.4521" height="48.9177" filterUnits="userSpaceOnUse" color-interpolation-filters="sRGB">
            <feFlood flood-opacity="0" result="BackgroundImageFix"/>
            <feBlend mode="normal" in="SourceGraphic" in2="BackgroundImageFix" result="shape"/>
            <feColorMatrix in="SourceAlpha" type="matrix" values="0 0 0 0 0 0 0 0 0 0 0 0 0 0 0 0 0 0 127 0" result="hardAlpha"/>
            <feOffset dy="-1"/>
            <feGaussianBlur stdDeviation="3"/>
            <feComposite in2="hardAlpha" operator="arithmetic" k2="-1" k3="1"/>
            <feColorMatrix type="matrix" values="0 0 0 0 1 0 0 0 0 1 0 0 0 0 1 0 0 0 0.1 0"/>
            <feBlend mode="normal" in2="shape" result="effect1_innerShadow_2440_961"/>
            <feColorMatrix in="SourceAlpha" type="matrix" values="0 0 0 0 0 0 0 0 0 0 0 0 0 0 0 0 0 0 127 0" result="hardAlpha"/>
            <feOffset dy="1"/>
            <feGaussianBlur stdDeviation="0.5"/>
            <feComposite in2="hardAlpha" operator="arithmetic" k2="-1" k3="1"/>
            <feColorMatrix type="matrix" values="0 0 0 0 1 0 0 0 0 1 0 0 0 0 1 0 0 0 0.1 0"/>
            <feBlend mode="normal" in2="effect1_innerShadow_2440_961" result="effect2_innerShadow_2440_961"/>
        </filter>
        <filter id="filter2_d_2440_961" x="13.4082" y="13.7981" width="40.4941" height="40.6113" filterUnits="userSpaceOnUse" color-interpolation-filters="sRGB">
            <feFlood flood-opacity="0" result="BackgroundImageFix"/>
            <feColorMatrix in="SourceAlpha" type="matrix" values="0 0 0 0 0 0 0 0 0 0 0 0 0 0 0 0 0 0 127 0" result="hardAlpha"/>
            <feOffset dy="2"/>
            <feGaussianBlur stdDeviation="1.5"/>
            <feComposite in2="hardAlpha" operator="out"/>
            <feColorMatrix type="matrix" values="0 0 0 0 1 0 0 0 0 1 0 0 0 0 1 0 0 0 0.6 0"/>
            <feBlend mode="normal" in2="BackgroundImageFix" result="effect1_dropShadow_2440_961"/>
            <feBlend mode="normal" in="SourceGraphic" in2="effect1_dropShadow_2440_961" result="shape"/>
        </filter>
    </defs>
</svg>
